<?xml version="1.0" encoding="utf-8"?>
<!-- Generator: Adobe Illustrator 27.4.0, SVG Export Plug-In . SVG Version: 6.00 Build 0)  -->
<svg version="1.1" id="Layer_1" xmlns="http://www.w3.org/2000/svg" xmlns:xlink="http://www.w3.org/1999/xlink" x="0px" y="0px"
	 viewBox="0 0 1000 232" style="enable-background:new 0 0 1000 232;" xml:space="preserve">
<style type="text/css">
	.st0{fill:#485BA6;}
	.st1{fill:#4666AE;}
	.st2{fill:#FFFFFF;}
	.st3{opacity:0.5;}
	.st4{fill:#3E3E3E;}
</style>
<g>
	<g>
		<g>
			
				<ellipse transform="matrix(0.7071 -0.7071 0.7071 0.7071 -48.2567 117.9156)" class="st0" cx="118.21" cy="117.21" rx="111.21" ry="111.21"/>
		</g>
		<g>
			<path class="st1" d="M124.18,131.47c0,0-4.25,0.05-9.58,0.96c0.95-0.15,1.96-0.3,3.02-0.41c2.97-0.36,5.64-0.5,7.57-0.55H124.18z
				"/>
		</g>
		<g>
			<polygon class="st1" points="172.48,137.14 174.77,131.47 174.76,131.47 171.12,140.48 			"/>
		</g>
		<g>
			<g>
				<path class="st2" d="M170.75,80.11c1.45-3.57,2.17-6.23,2.17-7.98c0-2.17-0.85-4.02-2.55-5.54c-1.71-1.52-3.83-2.28-6.36-2.28
					c-5.57,0-9.66,3.1-12.24,9.3l-15.97,39.35l-3.33,0.08l-11,0.31c-3.55,0-7.11,0.26-10.7,0.75l0,0c-0.03,0-0.07,0.01-0.1,0.02
					c-1.39,0.19-2.78,0.43-4.18,0.7c-1.25,0.2-2.45,0.42-3.31,0.69c-3.3,1.05-9.06,2.33-14.54,6.08c-3.77,2.59-6.28,5.17-8.43,8.07
					l-2.38-6.47l37.02-38.58c4.19-4.38,6.28-8.1,6.28-11.16c0-2.47-0.83-4.53-2.48-6.16c-1.66-1.62-3.72-2.43-6.2-2.43
					c-3.62,0-7.62,2.29-12.01,6.89l-40.61,42.64l12.94-34.27c1.32-3.57,1.95-6.23,1.89-7.98c-0.08-2.17-0.99-4.02-2.75-5.54
					c-1.76-1.52-3.9-2.28-6.43-2.28c-5.58,0-9.55,3.1-11.92,9.3l-17.45,46.18l-16.15,39.73c-0.88,2.22-1.32,4.18-1.32,5.88
					c0,2.13,0.85,3.96,2.56,5.51c1.7,1.54,3.75,2.32,6.12,2.32c5.73,0,10.14-3.86,13.24-11.62l16.04-39.43
					c0,0,9.18,24.94,16.26,43.98c0.23,0.62,0.45,1.22,0.68,1.82c1.58,3.8,4.08,7.11,7.3,10.1c1.84,1.71,3.83,3.15,5.97,4.34
					c5,2.79,10.82,4.2,17.45,4.2c17.82,0,26.19-10.42,33.92-26.9l7.93-19.22L170.75,80.11z M127.95,132.26l-8.75,20.63
					c-5,10.49-11.31,12.85-15.65,13.24c-3.18,0.29-6.83-0.86-8.53-2.09c-2.03-1.49-3.44-3.44-4.23-5.6
					c-0.02-0.03-0.04-0.08-0.05-0.12c-0.46-1.29-0.71-2.64-0.74-3.99c-0.08-3.6,1.76-8.03,3.33-10.31c2.19-3.19,4.47-5.6,9.22-7.95
					c0.01,0,0.01,0,0.01,0c2.89-1.43,6.13-2.4,9.21-3.08c1.99-0.42,3.98-0.74,5.85-0.96c-1.06,0.11-2.07,0.26-3.02,0.41
					c5.33-0.91,9.58-0.96,9.58-0.96h1.02c-1.93,0.05-4.6,0.19-7.57,0.55c3.05-0.34,6.57-0.55,10.64-0.55L127.95,132.26z"/>
			</g>
		</g>
		<g>
			<path class="st2" d="M211.87,112.96l-1.62-0.03h-6.47l13.15-32.35c1.49-3.72,2.24-6.46,2.24-8.21c0-2.27-0.86-4.18-2.56-5.73
				c-1.71-1.55-3.77-2.32-6.19-2.32c-5.63,0-9.77,3.18-12.4,9.53l-26.9,66.64l-7.86,19.31c-0.88,2.22-1.32,4.18-1.32,5.88
				c0,2.12,0.85,3.96,2.55,5.51c1.71,1.55,3.75,2.32,6.12,2.32c2.71,0,5.13-0.88,7.24-2.6c2.37-1.94,4.37-4.93,6.01-9.02
				l12.39-30.42h0.06h9.92c4.44,0,7.92-0.97,10.44-2.9c2.54-1.94,3.8-4.61,3.8-8.02C220.47,115.49,217.6,112.96,211.87,112.96z"/>
		</g>
		<g>
			<polygon class="st1" points="171.12,140.48 171.09,140.55 171.09,140.55 			"/>
		</g>
		<g class="st3">
			<g>
				<polyline class="st2" points="149.8,131.47 174.83,131.47 182.25,112.92 157.38,112.92 				"/>
			</g>
		</g>
	</g>
	<g>
		<g>
			<path class="st0" d="M455.63,56.9l-10.58,42.6h-40.51l10.58-42.6h-13.55c-3.61,0-7.03,1.33-10.16,3.96
				c-3.11,2.59-5.14,5.8-6.07,9.53l-25.75,103.68l-30.25-68.37l57.88-48.81h-34.17l-49.55,43.25l10.73-43.25H300.7
				c-3.61,0-7.03,1.33-10.17,3.96c-3.1,2.59-5.14,5.8-6.06,9.53l-26.08,104.98h26.43l10.38-41.79c0.82-3.3,3.05-5.51,6.83-6.74
				c3.44-1.12,6.32,1.14,8.96,6.7l17.77,41.82h30.52h0.9h25.52l12.64-50.92h40.51l-12.64,50.92h26.75L482.36,56.9H455.63z"/>
			<g>
				<g>
					<path class="st4" d="M558.73,106.8c2.26,1.19,3.39,3.07,3.39,5.62c0,1.79-0.59,3.33-1.76,4.61c-1.17,1.28-2.75,1.91-4.75,1.91
						c-0.84,0-1.71-0.13-2.63-0.38c-3.59-1.02-7.93-3.32-13.02-6.9c-5.92-4.33-9.93-8.64-12.01-12.9
						c-1.42,4.43-5.34,9.29-11.77,14.56c-5.42,4.42-10.13,7.36-14.14,8.8c-0.91,0.34-1.83,0.52-2.75,0.52
						c-1.84,0-3.37-0.64-4.57-1.92c-1.21-1.28-1.8-2.77-1.8-4.46c0-2.21,0.95-4.01,2.87-5.37c14.85-10.39,22.36-22.99,22.53-37.8
						H496.3V59.8h61.69v13.29h-21.9c0.09,6.73,2.17,13.09,6.26,19.08C546.42,98.18,551.89,103.06,558.73,106.8z M589.4,152.64
						c0,8.18-2.75,14.71-8.26,19.6c-5.51,4.9-12.64,7.35-21.4,7.35c-8.85,0-16.03-2.44-21.53-7.35c-5.51-4.89-8.26-11.42-8.26-19.6
						c0-8.17,2.75-14.7,8.26-19.6c5.5-4.89,12.68-7.34,21.53-7.34c8.75,0,15.89,2.45,21.4,7.34
						C586.65,137.94,589.4,144.47,589.4,152.64z M573.37,152.64c0-4.25-1.29-7.72-3.88-10.4c-2.58-2.68-5.84-4.02-9.75-4.02
						c-4,0-7.31,1.34-9.89,4.02c-2.59,2.68-3.88,6.15-3.88,10.4c0,4.26,1.3,7.72,3.88,10.41c2.58,2.69,5.88,4.03,9.89,4.03
						c3.92,0,7.17-1.35,9.75-4.03C572.08,160.36,573.37,156.9,573.37,152.64z M552.73,94.16V81.13h19.64V58.01h16.89v56.7
						c0,2.73-0.83,4.86-2.5,6.39c-1.67,1.54-3.63,2.3-5.87,2.3c-2.35,0-4.34-0.77-6.01-2.3c-1.67-1.53-2.51-3.66-2.51-6.39V94.16
						H552.73z"/>
				</g>
				<g>
					<path class="st4" d="M592.28,153.41v-13.67h44.67v-19.28h-15.63c-9.1,0-13.64-4.64-13.64-13.92V59.68h16.64v18.01h41.67V59.68
						h16.77v46.87c0,9.28-4.55,13.92-13.64,13.92h-15.52v19.28h39.43c2.08,0,3.73,0.68,4.93,2.04c1.21,1.36,1.82,2.98,1.82,4.85
						c0,1.88-0.61,3.47-1.82,4.79c-1.21,1.32-2.85,1.98-4.93,1.98H592.28z M663.23,106.55c1.84,0,2.75-1.03,2.75-3.07v-12h-41.67v12
						c0,2.04,0.92,3.07,2.75,3.07H663.23z"/>
				</g>
				<g>
					<path class="st4" d="M744.33,141.92v-38.44h15.63v38.44h33.16c2.09,0,3.74,0.68,4.94,2.04c1.21,1.37,1.82,2.99,1.82,4.86
						c0,1.86-0.61,3.47-1.82,4.78c-1.2,1.32-2.85,1.97-4.94,1.97H692.39v-13.65h24.77v-38.44h15.51v38.44H744.33z M786.37,94.41
						c0,12.35-0.84,21.5-2.5,27.46c-1.09,3.83-3.46,5.75-7.13,5.75c-2.01,0-3.75-0.72-5.25-2.17c-1.51-1.45-2.26-3.4-2.26-5.87
						c0-0.6,0.04-1.19,0.12-1.79c0.59-4.08,0.89-11.02,0.89-20.81l0.12-23.37h-62.69V59.93h78.71V94.41z"/>
				</g>
				<g>
					<path class="st4" d="M883.6,167.58c0,2.73-0.8,4.86-2.38,6.39c-1.59,1.53-3.47,2.29-5.63,2.29c-2.25,0-4.13-0.71-5.63-2.16
						c-1.76-1.62-2.63-3.79-2.63-6.52V153.8c0-2.31-1.13-3.45-3.39-3.45h-56.81v-13.42h13.64v-11.99H792.5v-13.29h100.74
						c2.09,0,3.75,0.66,4.95,1.99c1.2,1.31,1.81,2.87,1.81,4.66c0,1.78-0.61,3.34-1.81,4.66c-1.21,1.31-2.86,1.98-4.95,1.98h-23.02
						v11.99h4.25c6.09,0,9.14,3.12,9.14,9.32V167.58z M874.22,80.62c0,7.66-2.74,13.88-8.2,18.65c-5.47,4.77-12.45,7.15-20.96,7.15
						c-8.51,0-15.5-2.38-20.96-7.15c-5.47-4.76-8.2-10.98-8.2-18.65c0-7.66,2.73-13.87,8.2-18.64c5.46-4.76,12.45-7.15,20.96-7.15
						c8.52,0,15.5,2.39,20.96,7.15C871.48,66.75,874.22,72.96,874.22,80.62z M857.57,80.75c0-3.92-1.22-6.96-3.63-9.13
						c-2.42-2.18-5.38-3.26-8.89-3.26c-3.5,0-6.47,1.11-8.88,3.32c-2.43,2.21-3.63,5.23-3.63,9.07c0,3.83,1.2,6.85,3.63,9.06
						c2.41,2.21,5.38,3.32,8.88,3.32c3.51,0,6.46-1.1,8.89-3.32C856.35,87.6,857.57,84.58,857.57,80.75z M837.17,136.93h16.51
						v-11.99h-16.51V136.93z"/>
				</g>
				<g>
					<path class="st4" d="M922.64,138.22v-17.75h-29.78V108.2h53.19c6.5,0,12.05-0.6,16.64-1.79c0.91-0.26,1.76-0.38,2.5-0.38
						c3,0,4.51,1.36,4.51,4.08c0,2.22-1.18,4.17-3.51,5.88c-4.09,2.98-11.17,4.47-21.28,4.47h-6.12v17.75H922.64z M957.68,80.11
						c0,7.32-2.53,13.23-7.57,17.75c-5.05,4.51-11.58,6.77-19.59,6.77c-8.01,0-14.53-2.26-19.58-6.77
						c-5.05-4.51-7.57-10.43-7.57-17.75c0-7.32,2.52-13.24,7.57-17.75c5.05-4.51,11.57-6.77,19.58-6.77
						c8.01,0,14.54,2.26,19.59,6.77C955.15,66.88,957.68,72.79,957.68,80.11z M984.6,161.58c2.23,0,3.99,0.66,5.25,1.98
						c1.25,1.32,1.87,2.92,1.87,4.79c0,1.87-0.62,3.51-1.87,4.92c-1.26,1.4-3.02,2.1-5.25,2.1h-59.57c-5.09,0-8.66-1.01-10.7-3.06
						c-2.04-2.04-3.06-5.71-3.06-10.98v-19.15h15.75v14.93c0,2.99,1.46,4.48,4.39,4.48H984.6z M941.91,80.11
						c0-3.41-1.13-6.15-3.38-8.23c-2.25-2.09-4.91-3.13-8.01-3.13c-3.08,0-5.75,1.04-8.01,3.13c-2.24,2.09-3.38,4.83-3.38,8.23
						c0,3.4,1.14,6.13,3.38,8.17c2.25,2.05,4.92,3.07,8.01,3.07c3.09,0,5.76-1.02,8.01-3.07C940.78,86.24,941.91,83.51,941.91,80.11
						z M967.07,138.34H949.3v-12.38h24.28V58.01h16.27v84.67c0,2.73-0.8,4.83-2.38,6.32c-1.6,1.49-3.5,2.24-5.76,2.24
						c-2.17,0-4.07-0.75-5.69-2.24c-1.63-1.5-2.44-3.59-2.44-6.32v-4.98C971.58,138.13,969.41,138.34,967.07,138.34z"/>
				</g>
			</g>
		</g>
	</g>
</g>
</svg>
